<svg width="900" height="620" viewBox="0 0 900 620" xmlns="http://www.w3.org/2000/svg" font-family="ui-monospace, SFMono-Regular, Menlo, monospace" role="img" aria-label="One request end to end: each step changes credential type">
<defs>
<marker id="a" viewBox="0 0 10 10" refX="5" refY="5" markerWidth="6.5" markerHeight="6.5" orient="auto-start-reverse"><path d="M0 0 L10 5 L0 10 z" fill="#6b7280"/></marker>
<style>
text{font-family:ui-monospace, SFMono-Regular, Menlo, monospace;}
.h{font-size:13.5px;font-weight:700}
.s{font-size:11.5px;fill:#6b7280}
.lbl{font-size:12px;fill:#6b7280;font-style:italic}
.arw{stroke:#6b7280;stroke-width:1.5;fill:none}
</style>
</defs>

<rect x="140" y="36" width="440" height="68" rx="10" fill="#eef5fc" stroke="#378ADD" stroke-width="1.4"/>
<text x="164" y="64" class="h" fill="#185FA5">PROVIDER PROOF · or SIWE</text>
<text x="164" y="88" class="s">verified at the edge · consumed in one ceremony</text>

<path class="arw" d="M360,104 V152" marker-end="url(#a)"/>
<text x="378" y="132" class="lbl">verify</text>

<rect x="140" y="156" width="440" height="68" rx="10" fill="#f6fcf9" stroke="#1D9E75" stroke-width="1.4"/>
<text x="164" y="184" class="h" fill="#0F6E56">FIRST-PARTY SESSION</text>
<text x="164" y="208" class="s">HttpOnly cookie · days · revocable</text>

<path class="arw" d="M360,224 V272" marker-end="url(#a)"/>
<text x="378" y="252" class="lbl">resolve</text>

<rect x="140" y="276" width="440" height="68" rx="10" fill="#1f2937"/>
<text x="164" y="304" class="h" fill="#ffffff">CANONICAL USER ID</text>
<text x="164" y="328" font-size="11.5px" fill="#c7cdd6">the stable, application-owned root</text>

<path class="arw" d="M360,344 V392" marker-end="url(#a)"/>
<text x="378" y="372" class="lbl">sign at the BFF</text>

<rect x="140" y="396" width="440" height="68" rx="10" fill="#fffaf0" stroke="#EF9F27" stroke-width="1.4"/>
<text x="164" y="424" class="h" fill="#B0710F">BACKEND ASSERTION</text>
<text x="164" y="448" class="s">aud-bound · role-bound · minutes</text>

<path class="arw" d="M360,464 V512" marker-end="url(#a)"/>
<text x="378" y="492" class="lbl">verify at the route</text>

<rect x="140" y="516" width="440" height="68" rx="10" fill="#f6fcf9" stroke="#1D9E75" stroke-width="1.4"/>
<text x="164" y="544" class="h" fill="#0F6E56">TYPED ACCOUNT CONTEXT</text>
<text x="164" y="568" class="s">{ canonical_user, role } — all a handler ever sees</text>

<!-- side note -->
<text x="628" y="292" font-size="13px" font-weight="700" fill="#B0710F">EVERY ARROW CHANGES</text>
<text x="628" y="312" font-size="13px" font-weight="700" fill="#B0710F">CREDENTIAL TYPE</text>
<text x="628" y="340" class="s">reusing one credential across</text>
<text x="628" y="358" class="s">all five steps would erase the</text>
<text x="628" y="376" class="s">trust boundaries between them</text>
</svg>
