<svg xmlns="http://www.w3.org/2000/svg" viewBox="0 0 24 24" fill="none"><g transform="translate(-2.989349 -2.968144) scale(1.247347)"><g transform="translate(2.000000 2.000000) scale(0.625000)"><path d="M23.1523 25.9489H8.95361V28.8H23.1523V25.9489Z" fill="currentColor" /><path d="M14.6027 17.4008H11.7516V20.2519H14.6027V17.4008Z" fill="currentColor" /><path d="M20.303 17.4008H17.4519V20.2519H20.303V17.4008Z" fill="currentColor" /><path d="M23.1523 3.19995H8.95361V6.05109H23.1523V3.19995Z" fill="currentColor" /><path d="M17.4519 20.2485H14.6007V23.0997H17.4519V20.2485Z" fill="currentColor" /><path d="M17.4519 8.8479H14.6007V11.699H17.4519V8.8479Z" fill="currentColor" /><path d="M20.303 11.7004H17.4519V14.5516H20.303V11.7004Z" fill="currentColor" /><path d="M14.6027 11.7004H11.7516V14.5516H14.6027V11.7004Z" fill="currentColor" /><path d="M28.8544 8.8479H26.0033V23.0466H28.8544V8.8479Z" fill="currentColor" /><path d="M6.05109 14.5483V8.8479H3.19995V14.5483V23.0998H6.05109V14.5483Z" fill="currentColor" /></g></g></svg>
